<?xml version="1.0" standalone="no"?>
<!DOCTYPE svg PUBLIC "-//W3C//DTD SVG 20010904//EN"
 "http://www.w3.org/TR/2001/REC-SVG-20010904/DTD/svg10.dtd">
<svg version="1.0" xmlns="http://www.w3.org/2000/svg"
 width="300.000000pt" height="300.000000pt" viewBox="0 0 300.000000 300.000000"
 preserveAspectRatio="xMidYMid meet">
<metadata>
Created by potrace 1.10, written by Peter Selinger 2001-2011
</metadata>
<g transform="translate(0.000000,300.000000) scale(0.100000,-0.100000)"
fill="#3c527d" stroke="none">
<path d="M1423 2768 c-18 -6 -94 -62 -170 -124 l-138 -113 -195 -1 c-222 -1
-252 -8 -307 -75 -42 -51 -53 -102 -53 -253 l0 -130 -124 -102 c-80 -65 -131
-115 -143 -138 -17 -35 -18 -80 -18 -752 0 -704 0 -716 21 -755 14 -27 38 -51
74 -72 l54 -33 1068 0 c1170 0 1107 -3 1172 58 16 15 37 45 47 67 18 38 19 80
19 739 0 690 0 700 -21 743 -15 31 -54 71 -145 146 l-124 102 0 128 c0 151
-11 201 -53 252 -55 67 -86 75 -305 75 l-194 0 -124 103 c-69 56 -141 111
-161 122 -43 22 -133 29 -180 13z m152 -47 c22 -10 92 -61 155 -113 63 -52
125 -100 137 -106 14 -8 84 -12 199 -12 200 0 242 -8 284 -56 40 -47 50 -91
50 -232 0 -68 4 -132 10 -142 5 -10 59 -59 120 -110 60 -50 120 -106 132 -123
l23 -32 3 -700 3 -701 -24 -44 c-16 -30 -37 -51 -67 -67 l-43 -23 -1056 0
-1057 0 -44 23 c-33 16 -51 34 -68 67 l-22 44 0 689 c0 666 1 689 20 727 12
24 59 71 125 125 151 124 145 114 145 264 0 69 5 143 11 164 14 51 63 104 107
117 20 5 118 10 217 10 209 0 185 -9 344 125 150 126 208 146 296 106z"/>
<path d="M1465 2703 c-43 -12 -162 -109 -184 -150 -9 -19 -7 -24 15 -42 25
-19 40 -21 204 -21 164 0 179 2 204 21 24 19 25 22 12 47 -14 26 -67 74 -131
119 -33 23 -88 35 -120 26z m70 -43 c15 -6 58 -36 96 -68 l70 -57 -100 -3
c-56 -1 -146 -1 -202 0 l-100 3 70 58 c92 76 117 86 166 67z"/>
<path d="M721 2438 c-81 -41 -81 -44 -81 -428 0 -291 2 -339 16 -358 9 -13
120 -110 248 -215 546 -454 537 -447 598 -447 18 1 47 9 65 18 35 19 723 581
765 625 l28 29 0 347 c0 325 -1 348 -20 378 -44 72 11 68 -825 71 l-750 2 -44
-22z m1532 -27 c10 -1 29 -12 42 -26 l25 -24 -1 -348 0 -348 -379 -310 c-209
-170 -391 -314 -404 -319 -55 -21 -87 1 -476 323 l-380 313 0 342 c0 394 -1
385 86 395 37 5 1390 6 1487 2z"/>
<path d="M1020 2220 c-11 -11 -20 -29 -20 -40 0 -11 9 -29 20 -40 19 -19 33
-20 480 -20 447 0 461 1 480 20 11 11 20 29 20 40 0 11 -9 29 -20 40 -19 19
-33 20 -480 20 -447 0 -461 -1 -480 -20z m915 -40 c0 -13 -56 -15 -429 -18
-254 -1 -434 2 -439 7 -29 29 11 31 436 29 376 -3 432 -5 432 -18z"/>
<path d="M1048 1940 c-12 -3 -29 -18 -37 -32 -13 -23 -13 -29 2 -52 l17 -26
469 0 c441 0 469 1 484 18 23 25 21 55 -3 77 -20 18 -47 19 -465 20 -244 0
-454 -2 -467 -5z m892 -55 c0 -13 -56 -15 -440 -15 -384 0 -440 2 -440 15 0
13 56 15 440 15 384 0 440 -2 440 -15z"/>
<path d="M1013 1624 c-15 -24 -15 -29 -2 -53 l15 -26 329 0 329 0 15 26 c13
24 13 29 -2 53 l-17 26 -325 0 -325 0 -17 -26z m635 -31 c3 -10 -60 -13 -292
-13 -258 0 -296 2 -296 15 0 13 37 15 292 13 222 -2 292 -6 296 -15z"/>
<path d="M492 1915 c-52 -45 -59 -67 -32 -104 18 -26 77 -71 93 -71 4 0 15 10
27 22 26 28 29 131 4 166 -21 31 -44 28 -92 -13z m73 -70 c0 -41 -1 -75 -3
-75 -2 0 -23 17 -48 38 l-45 37 43 37 c24 21 45 38 48 38 3 0 5 -34 5 -75z"/>
<path d="M2417 1932 c-26 -29 -23 -141 3 -170 12 -12 24 -22 27 -22 15 0 83
53 98 76 21 32 13 55 -35 98 -45 40 -69 45 -93 18z m101 -75 c9 -10 2 -21 -33
-50 -24 -20 -45 -37 -47 -37 -2 0 -3 35 -3 79 l0 79 36 -29 c20 -15 41 -34 47
-42z"/>
<path d="M374 1776 c-17 -13 -20 -32 -25 -248 -4 -128 -5 -431 -2 -673 4 -411
6 -441 23 -459 12 -12 26 -17 42 -13 27 7 782 629 811 669 18 25 19 30 7 53
-19 35 -805 685 -829 685 -4 0 -16 -6 -27 -14z m214 -178 c294 -242 606 -499
617 -509 6 -6 2 -14 -10 -23 -34 -23 -738 -606 -772 -639 -18 -17 -33 -29 -33
-26 -2 119 -4 1359 -2 1359 1 0 91 -73 200 -162z"/>
<path d="M2578 1775 c-15 -7 -49 -32 -75 -54 -27 -22 -194 -160 -373 -307
-179 -147 -335 -279 -347 -293 -29 -32 -28 -49 0 -82 28 -31 769 -644 798
-660 18 -9 26 -7 47 15 l26 25 0 661 0 661 -25 24 c-22 23 -26 24 -51 10z m35
-692 c-2 -373 -3 -679 -3 -680 0 -2 -107 86 -238 195 -131 108 -315 260 -409
337 -94 77 -171 143 -170 146 2 6 242 205 664 551 72 59 135 113 138 118 3 6
9 10 13 10 4 0 6 -305 5 -677z"/>
<path d="M1254 1011 c-82 -59 -747 -612 -767 -637 -15 -20 -18 -31 -10 -43 26
-41 15 -41 1040 -38 917 2 983 3 1000 19 36 37 12 61 -387 390 -212 175 -398
323 -413 329 -25 11 -33 8 -83 -26 -43 -30 -68 -39 -109 -43 -69 -6 -88 0
-155 43 -30 19 -59 35 -66 35 -6 0 -29 -13 -50 -29z m177 -87 c75 -27 182 -2
233 55 11 12 25 21 31 21 7 0 174 -133 371 -296 197 -163 378 -311 401 -328
23 -17 42 -34 43 -38 0 -5 -456 -8 -1012 -8 l-1013 1 30 24 c17 13 201 165
410 338 l380 314 41 -34 c22 -18 61 -40 85 -49z"/>
</g>
</svg>
