<?xml version="1.0" standalone="no"?>
<!DOCTYPE svg PUBLIC "-//W3C//DTD SVG 20010904//EN"
 "http://www.w3.org/TR/2001/REC-SVG-20010904/DTD/svg10.dtd">
<svg version="1.0" xmlns="http://www.w3.org/2000/svg"
 width="225.000000pt" height="225.000000pt" viewBox="0 0 225.000000 225.000000"
 preserveAspectRatio="xMidYMid meet">
<metadata>
Created by potrace 1.10, written by Peter Selinger 2001-2011
</metadata>
<g transform="translate(0.000000,225.000000) scale(0.100000,-0.100000)"
fill="#d5dff2" stroke="none">
<path d="M669 1845 c-1 0 -8 -76 -19 -205 -6 -69 -13 -140 -16 -157 -4 -28 -2
-33 16 -33 11 0 20 6 20 13 1 22 48 128 75 166 34 50 101 97 171 121 48 17 85
20 232 20 l174 0 -25 -33 c-17 -22 -22 -38 -17 -47 5 -8 6 -18 4 -22 -7 -12 8
-10 52 6 25 8 47 10 62 5 12 -5 28 -6 35 -3 16 6 67 -32 67 -51 0 -7 14 -27
30 -43 17 -17 30 -27 30 -24 0 4 39 70 88 147 l87 140 -532 0 c-293 0 -533 0
-534 0z m244 -51 c-18 -8 -33 -18 -33 -24 0 -5 -7 -7 -15 -3 -9 3 -25 -3 -35
-12 -11 -10 -20 -15 -20 -12 0 4 -15 -9 -34 -29 -22 -23 -39 -33 -47 -29 -8 5
-10 4 -5 -4 4 -6 -2 -23 -13 -36 -12 -16 -22 -22 -26 -15 -9 15 3 62 14 55 5
-3 5 12 0 33 -11 49 -11 54 3 46 7 -5 9 0 6 14 -3 12 -1 23 6 26 6 2 61 4 121
4 104 0 108 0 78 -14z m733 -8 c-3 -11 -6 -25 -6 -30 0 -5 -6 -4 -13 2 -10 8
-13 6 -14 -9 -1 -11 2 -17 8 -14 5 4 9 1 9 -4 0 -6 -7 -11 -15 -11 -8 0 -15
-7 -15 -15 0 -8 -6 -15 -12 -15 -9 0 -8 -4 2 -10 13 -8 13 -10 -2 -10 -9 0
-20 -9 -23 -20 -3 -11 -10 -20 -14 -20 -12 0 -47 29 -35 30 7 0 15 8 19 18 5
14 4 15 -6 5 -16 -16 -33 -17 -23 -1 5 7 2 9 -9 5 -9 -3 -17 -1 -19 4 -4 12
-97 32 -115 24 -7 -2 -13 1 -13 8 0 8 -4 7 -10 -3 -14 -22 -22 -6 -11 21 5 13
10 18 10 10 1 -8 4 -11 7 -8 4 4 2 12 -3 19 -5 7 -13 21 -16 31 -6 17 4 18
159 16 164 -1 166 -2 160 -23z"/>
<path d="M1161 1688 c-5 -14 -10 -17 -15 -10 -11 19 -44 14 -56 -7 -17 -32 4
-69 52 -91 l43 -20 22 26 c29 32 38 69 24 100 -14 32 -58 33 -70 2z m49 -57
c0 -10 -6 -26 -14 -36 -13 -18 -15 -18 -40 -2 -30 20 -33 35 -10 52 23 16 64
7 64 -14z"/>
<path d="M935 1571 c-72 -34 -125 -114 -125 -193 0 -77 59 -138 135 -138 49 0
83 22 101 66 26 61 -23 115 -84 93 -59 -20 -62 -92 -5 -123 l28 -15 -38 -1
c-49 0 -73 13 -92 50 -33 63 -6 164 57 210 70 52 163 34 240 -47 127 -133 71
-354 -150 -591 l-68 -72 -11 43 c-14 53 -80 117 -119 117 -33 0 -64 -17 -64
-35 0 -17 47 -55 70 -55 28 0 86 -52 82 -75 -2 -18 -2 -18 8 -3 21 34 -43 128
-86 128 -23 0 -16 -16 12 -29 15 -6 24 -14 21 -17 -9 -10 -67 26 -67 41 0 15
10 19 45 15 48 -5 98 -86 88 -144 -3 -20 -9 -36 -13 -36 -11 0 -29 -97 -33
-177 -3 -40 -3 -73 -2 -73 2 0 12 15 23 34 15 25 32 38 61 46 47 12 62 41 35
71 -25 28 -49 24 -78 -13 l-25 -32 10 43 c13 57 29 87 76 139 30 35 47 45 80
49 83 11 143 -37 143 -114 0 -33 -6 -50 -25 -68 -51 -52 -140 -20 -133 48 6
60 88 70 88 11 0 -29 -24 -42 -45 -24 -14 11 -14 15 1 31 19 21 6 27 -14 7
-18 -18 -14 -46 8 -58 28 -15 59 -4 72 26 10 20 8 29 -9 52 -28 38 -75 41
-108 8 -29 -29 -31 -55 -10 -96 41 -80 156 -63 185 26 26 77 -31 162 -113 171
l-45 5 62 77 c34 42 81 118 106 171 42 90 45 100 45 180 -1 68 -5 93 -23 127
-31 59 -86 111 -146 139 -61 29 -98 30 -151 5z m70 -241 c0 -16 -6 -26 -18
-28 -19 -4 -32 20 -23 44 9 25 41 13 41 -16z"/>
<path d="M1317 1569 c-35 -18 -96 -93 -85 -105 3 -3 15 10 26 29 27 47 99 81
152 72 86 -15 131 -119 75 -179 -45 -49 -135 -24 -135 37 0 48 51 79 86 52 18
-14 18 -14 -4 -15 -18 0 -23 -5 -20 -22 4 -32 42 -31 46 0 7 45 -43 75 -93 56
-8 -4 -23 -20 -31 -36 -12 -23 -13 -36 -4 -63 14 -43 48 -65 101 -65 33 0 47
6 75 34 29 29 34 41 34 81 0 116 -116 181 -223 124z"/>
<path d="M1214 1529 c-10 -17 13 -36 27 -22 12 12 4 33 -11 33 -5 0 -12 -5
-16 -11z"/>
<path d="M1035 1473 c9 -21 28 -50 42 -65 24 -25 25 -28 7 -29 -14 0 -15 -2
-4 -6 83 -30 116 -70 105 -126 -5 -24 -4 -28 4 -17 25 36 9 99 -43 163 -18 23
-36 51 -41 62 -7 20 -7 20 -15 0 -6 -14 -9 -16 -9 -4 -1 15 -41 59 -54 59 -4
0 0 -17 8 -37z"/>
<path d="M1285 1353 c4 -10 12 -34 17 -55 13 -49 -11 -132 -57 -192 -43 -57
-31 -61 14 -6 62 78 81 173 46 239 -16 33 -32 43 -20 14z"/>
<path d="M1346 1294 c-9 -8 -16 -20 -16 -25 0 -13 24 -11 38 3 14 14 16 38 3
38 -5 0 -17 -7 -25 -16z"/>
<path d="M1015 1225 c-14 -13 -25 -33 -25 -44 0 -28 47 -81 66 -74 11 4 8 10
-15 24 -34 21 -39 43 -15 77 11 15 25 22 50 22 72 0 99 -79 48 -139 -14 -17
-31 -31 -37 -31 -7 0 -18 -9 -25 -20 -22 -36 0 -23 64 37 28 26 34 38 34 73 0
84 -90 131 -145 75z"/>
<path d="M1348 1229 c-17 -9 -26 -39 -12 -39 13 0 42 21 48 35 6 17 -11 19
-36 4z"/>
<path d="M908 1116 c-30 -51 -34 -62 -21 -69 10 -6 22 -2 37 12 28 26 41 26
66 1 12 -12 25 -18 30 -15 14 9 12 35 -2 35 -23 1 -50 28 -62 63 l-11 34 -37
-61z"/>
<path d="M1313 1153 c-22 -8 -14 -23 11 -23 13 0 29 7 36 15 10 13 9 15 -11
14 -13 0 -30 -3 -36 -6z"/>
<path d="M947 1023 c-10 -10 -8 -61 2 -68 14 -8 33 32 26 55 -7 21 -17 25 -28
13z"/>
<path d="M870 992 c0 -21 34 -56 48 -51 15 6 -4 46 -27 59 -18 9 -21 8 -21 -8z"/>
<path d="M1010 990 c-21 -21 -27 -50 -10 -50 15 0 50 38 50 55 0 21 -16 19
-40 -5z"/>
<path d="M1148 968 c-32 -49 -32 -66 4 -88 40 -24 64 -25 72 -3 10 26 -13 42
-29 20 -11 -15 -17 -16 -34 -7 -12 6 -21 19 -21 29 0 20 23 45 33 35 3 -4 14
-4 23 0 13 5 14 9 4 21 -18 21 -35 19 -52 -7z"/>
<path d="M1765 941 c-10 -58 -68 -173 -112 -222 -45 -50 -119 -99 -188 -124
-40 -14 -90 -19 -245 -22 -143 -3 -206 -8 -235 -19 -41 -16 -75 -41 -75 -56 0
-4 191 -8 425 -8 234 0 425 2 425 5 0 20 51 463 55 473 3 7 -5 12 -19 12 -20
0 -25 -6 -31 -39z m-20 -223 c-4 -56 -15 -140 -21 -160 -1 -5 -2 -12 -3 -18
-1 -6 -59 -10 -153 -10 -137 1 -151 2 -134 15 11 8 33 15 49 15 19 0 26 4 21
12 -5 8 2 9 25 5 20 -4 30 -3 26 3 -3 6 -1 10 5 10 6 0 8 4 5 10 -3 5 10 17
29 27 19 9 34 19 32 22 -1 3 8 16 21 28 27 26 31 19 6 -11 -14 -16 -14 -18 -2
-8 9 6 20 8 24 4 5 -4 5 -2 2 4 -4 7 2 22 12 35 10 13 20 29 21 34 8 32 13 37
21 23 7 -10 9 -9 9 5 0 9 2 17 5 17 2 0 2 -28 0 -62z"/>
<path d="M1170 930 c-8 -5 -11 -12 -8 -16 10 -9 58 4 58 16 0 13 -30 13 -50 0z"/>
<path d="M940 911 c0 -26 17 -36 35 -21 18 15 8 40 -16 40 -12 0 -19 -7 -19
-19z"/>
<path d="M726 822 c-8 -16 -55 -92 -103 -168 -49 -76 -92 -145 -97 -151 -6
-10 25 -13 140 -13 142 0 146 1 124 18 -14 11 -22 28 -21 47 0 17 1 49 0 72 0
23 5 44 10 48 6 3 8 19 4 36 -6 34 18 69 49 69 10 0 18 7 18 15 0 18 -35 41
-77 50 -28 6 -34 3 -47 -23z m54 -20 c0 -5 -8 -17 -18 -28 -18 -19 -20 -27
-23 -104 -1 -22 -6 -40 -12 -40 -6 0 -5 -5 1 -13 12 -14 12 -57 0 -57 -4 0 -7
-6 -5 -12 1 -9 -18 -15 -61 -18 -49 -4 -61 -2 -57 8 3 8 5 18 5 23 0 6 6 7 13
3 7 -5 6 0 -3 11 -11 14 -12 17 -1 11 9 -6 12 -5 9 4 -2 7 6 24 19 38 12 13
20 29 16 35 -3 6 -1 7 5 3 8 -5 12 0 12 12 0 11 7 25 15 32 8 7 12 16 9 21 -3
5 0 8 8 7 7 -2 12 5 12 14 -1 10 2 15 7 13 4 -3 16 6 25 20 17 26 24 31 24 17z"/>
<path d="M824 729 c-3 -6 0 -17 8 -25 13 -13 16 -13 27 0 7 8 10 20 6 26 -8
13 -32 13 -41 -1z"/>
<path d="M814 645 c-7 -18 3 -35 21 -35 18 0 26 25 12 39 -15 15 -27 14 -33
-4z"/>
<path d="M813 564 c-8 -21 13 -42 28 -27 13 13 5 43 -11 43 -6 0 -13 -7 -17
-16z"/>
<path d="M39 518 c-7 -31 -5 -38 9 -39 15 0 14 -1 -1 -8 -10 -4 -18 -11 -18
-16 0 -5 8 -12 18 -16 13 -6 14 -8 3 -8 -12 -1 -15 -12 -14 -48 2 -70 3 -73
20 -73 14 0 15 2 3 17 -10 11 -10 14 -1 9 8 -5 12 0 12 13 0 13 -7 21 -17 21
-17 1 -17 1 0 11 20 12 24 69 5 69 -10 0 -10 2 0 8 15 10 10 54 -6 60 -7 2
-12 2 -13 0z"/>
<path d="M39 268 c-5 -27 -3 -98 4 -98 4 0 5 6 1 13 -5 8 -2 8 9 -2 15 -12 17
-11 17 13 0 19 -4 25 -12 20 -10 -6 -10 -4 0 7 17 18 15 49 -3 49 -8 0 -15 -1
-16 -2z"/>
<path d="M43 146 c3 -8 3 -17 0 -20 -11 -11 -12 -56 -1 -56 6 0 6 -6 -2 -15
-7 -8 -10 -15 -7 -15 3 0 11 -2 19 -5 10 -4 13 10 14 60 1 51 -2 65 -14 65 -8
0 -12 -6 -9 -14z"/>
</g>
</svg>
